# xmcd
# Track frame offsets:
# 150
# 14294
# 29311
# 43832
# 62714
# 80129
# 93481
# 111378
# 127799
# 142386
# 158281
# 172594
# 189262
# 206316
#
# Disc length: 2964 seconds
# Revision: 0
# Processed by: cddbd v1.5.2PL0 Copyright (c) Steve Scherf et al.
# Submitted via: VisiTrax 2.11.2.271 - For more info visit www.synapsa.com
#
DISCID=b10b920e
DTITLE=Millington. Col - Australian. The
DYEAR=2013
DGENRE=Country
TTITLE0=Australian. The
TTITLE1=I Ain't Dead (Just Retired )
TTITLE2=True Love
TTITLE3=Lullaby
TTITLE4=Let's Make Love Tonight
TTITLE5=Two Bluue Eyes
TTITLE6=Choked Up With Emotion
TTITLE7=You Don't want Me Round
TTITLE8=Just Old Mates
TTITLE9=Old Man. The, and The Young Girl
TTITLE10=wanted Man
TTITLE11=Here We Go Again
TTITLE12=Where Do We Go From Here
TTITLE13=Easy Saturday
EXTD=
EXTT0=
EXTT1=
EXTT2=
EXTT3=
EXTT4=
EXTT5=
EXTT6=
EXTT7=
EXTT8=
EXTT9=
EXTT10=
EXTT11=
EXTT12=
EXTT13=
PLAYORDER=
